<?xml version="1.0" standalone="no"?>
<!DOCTYPE svg PUBLIC "-//W3C//DTD SVG 20010904//EN"
 "http://www.w3.org/TR/2001/REC-SVG-20010904/DTD/svg10.dtd">
<svg version="1.0" xmlns="http://www.w3.org/2000/svg"
 width="700.000000pt" height="700.000000pt" viewBox="0 0 700.000000 700.000000"
 preserveAspectRatio="xMidYMid meet">
<metadata>
Created by potrace 1.14, written by Peter Selinger 2001-2017
</metadata>
<g transform="translate(0.000000,700.000000) scale(0.100000,-0.100000)"
fill="#000000" stroke="none">
<path d="M3467 6339 c-95 -15 -103 -24 -425 -507 -165 -246 -308 -465 -319
-487 -12 -22 -24 -65 -27 -96 -4 -31 -8 -65 -10 -75 -2 -11 -7 -46 -11 -79 -4
-32 -9 -68 -11 -78 -2 -11 -6 -45 -9 -76 -3 -31 -8 -67 -10 -81 -2 -14 -7 -43
-9 -65 -3 -22 -8 -60 -12 -85 -8 -55 -11 -80 -13 -100 -1 -13 -25 -16 -163
-17 -183 -1 -211 -8 -271 -68 -83 -83 -81 -218 3 -303 53 -53 110 -68 256 -67
l114 1 -5 -41 c-3 -22 -8 -51 -10 -65 -2 -14 -7 -50 -10 -80 -3 -30 -8 -62
-10 -70 -2 -8 -7 -43 -10 -77 -3 -34 -7 -70 -9 -80 -2 -10 -7 -40 -10 -68 -4
-27 -9 -63 -11 -80 -5 -31 -6 -41 -25 -185 -6 -47 -13 -101 -16 -121 -2 -20
-7 -54 -9 -75 -3 -22 -7 -50 -10 -64 -2 -14 -7 -50 -10 -80 -3 -30 -8 -66 -10
-80 -5 -26 -11 -75 -20 -145 -6 -47 -15 -120 -21 -155 -2 -14 -6 -47 -9 -75
-3 -27 -8 -61 -10 -75 -2 -14 -6 -45 -10 -70 -3 -25 -8 -56 -10 -70 -2 -14 -7
-50 -10 -80 -3 -30 -8 -62 -10 -70 -2 -8 -7 -44 -10 -80 -4 -36 -9 -74 -11
-85 -2 -11 -6 -45 -9 -75 -4 -30 -8 -62 -10 -70 -2 -8 -7 -40 -10 -70 -3 -30
-8 -66 -10 -80 -2 -14 -6 -45 -10 -70 -3 -25 -8 -56 -10 -70 -2 -14 -7 -50
-10 -80 -3 -30 -8 -62 -10 -70 -2 -8 -7 -43 -10 -77 -3 -34 -7 -70 -9 -80 -4
-17 -6 -38 -22 -163 -4 -25 -8 -53 -10 -63 -2 -10 -6 -46 -9 -80 -4 -34 -10
-80 -14 -102 -16 -86 5 -160 62 -216 65 -66 -20 -62 1297 -63 729 -1 1211 2
1235 8 78 18 138 75 160 149 12 43 12 57 2 142 -13 103 -47 361 -53 395 -3 19
-7 53 -10 75 -3 22 -9 69 -14 105 -6 36 -12 85 -15 110 -3 25 -7 59 -10 75 -2
17 -7 50 -10 75 -3 25 -7 54 -9 66 -2 11 -7 47 -10 80 -4 32 -13 102 -21 154
-7 52 -16 118 -20 145 -9 77 -12 101 -29 225 -8 63 -18 138 -21 165 -3 28 -8
59 -10 70 -2 11 -7 43 -10 70 -3 28 -8 64 -10 80 -2 17 -7 53 -10 80 -4 28 -8
61 -10 74 -2 13 -7 45 -10 70 -4 25 -8 62 -11 81 -3 19 -7 55 -10 80 -3 25 -9
72 -14 105 -5 33 -12 80 -15 105 -7 51 -33 258 -40 310 -2 19 -11 85 -20 145
-8 61 -18 130 -21 155 -3 25 -7 59 -10 75 l-4 30 132 1 c151 2 185 12 242 70
81 84 80 218 -3 300 -59 59 -101 70 -278 69 -132 -1 -153 1 -154 14 0 9 -2 25
-4 36 -2 11 -6 40 -9 65 -3 25 -10 77 -15 115 -6 39 -13 90 -15 115 -3 25 -8
61 -11 80 -2 19 -7 55 -10 80 -3 25 -8 52 -10 60 -2 8 -6 42 -10 75 -4 33 -14
78 -24 100 -33 74 -618 941 -651 965 -47 33 -107 48 -163 39z m153 -790 c10
-14 46 -68 81 -120 34 -52 87 -130 116 -175 30 -44 56 -89 58 -100 2 -10 6
-44 10 -74 4 -30 8 -66 10 -79 6 -32 16 -112 30 -226 4 -27 11 -77 16 -110 5
-33 9 -62 9 -66 0 -3 -202 -5 -450 -5 l-449 0 5 45 c3 26 7 57 9 71 3 14 7 50
11 80 3 30 7 62 9 70 2 8 7 44 10 80 4 36 8 67 10 70 2 3 6 34 10 70 11 97 -9
62 243 438 l143 213 51 -78 c28 -43 58 -90 68 -104z m405 -1524 c10 -71 19
-139 21 -150 1 -11 8 -58 14 -105 6 -47 13 -96 15 -110 2 -14 11 -81 20 -150
9 -69 25 -190 36 -270 11 -80 22 -161 24 -180 10 -85 37 -289 49 -370 3 -19
13 -91 21 -160 9 -69 18 -136 20 -150 4 -23 19 -137 30 -223 3 -20 7 -52 9
-69 3 -18 12 -89 21 -158 9 -69 18 -136 20 -150 2 -14 9 -62 15 -107 6 -46 13
-95 15 -110 9 -70 47 -363 52 -403 3 -25 6 -49 7 -55 1 -6 -316 -10 -914 -10
-594 0 -914 4 -914 10 1 6 5 37 9 70 3 33 8 74 10 90 3 17 11 82 20 145 8 63
20 147 25 185 14 99 18 125 35 260 9 66 18 135 20 153 3 18 8 54 10 80 3 26
13 94 21 152 15 108 19 138 29 225 4 28 8 61 10 75 2 14 8 59 14 100 22 152
41 296 46 345 3 28 8 61 10 75 4 24 8 54 20 145 14 113 44 337 50 375 2 14 7
52 10 85 4 33 8 67 10 75 2 8 7 40 10 70 3 30 8 67 11 81 2 15 6 47 9 70 3 24
10 73 15 109 5 36 10 70 10 75 0 7 169 10 509 10 l509 0 17 -130z"/>
<path d="M824 5171 c-99 -24 -169 -119 -166 -224 2 -74 20 -98 258 -337 l234
-235 -226 -225 c-124 -124 -234 -242 -245 -262 -20 -40 -27 -117 -14 -159 39
-121 183 -188 296 -137 52 23 646 609 686 677 33 54 36 146 8 201 -23 47 -630
656 -678 681 -42 22 -108 31 -153 20z"/>
<path d="M6068 5170 c-55 -16 -98 -55 -400 -357 -318 -319 -338 -344 -343
-428 -6 -93 5 -107 339 -443 171 -173 331 -325 355 -340 35 -20 58 -26 106
-26 144 0 239 121 211 269 -9 48 -18 59 -247 290 l-239 240 231 231 c204 204
233 237 249 283 45 133 -48 275 -186 285 -27 2 -61 0 -76 -4z"/>
</g>
</svg>
