<?xml version="1.0" standalone="no"?>
<!DOCTYPE svg PUBLIC "-//W3C//DTD SVG 20010904//EN"
 "http://www.w3.org/TR/2001/REC-SVG-20010904/DTD/svg10.dtd">
<svg version="1.0" xmlns="http://www.w3.org/2000/svg"
 width="700.000000pt" height="700.000000pt" viewBox="0 0 700.000000 700.000000"
 preserveAspectRatio="xMidYMid meet">
<metadata>
Created by potrace 1.14, written by Peter Selinger 2001-2017
</metadata>
<g transform="translate(0.000000,700.000000) scale(0.100000,-0.100000)"
fill="#000000" stroke="none">
<path d="M1798 6265 c-5 -5 -261 -99 -528 -195 -294 -105 -400 -145 -398 -152
3 -6 119 -105 277 -237 24 -20 49 -41 55 -46 6 -6 54 -46 106 -90 52 -44 97
-82 100 -85 10 -11 185 -156 196 -163 6 -3 58 9 115 27 57 19 212 68 344 110
132 43 275 89 318 103 43 14 80 23 82 22 1 -2 67 -103 145 -224 79 -121 164
-251 189 -290 25 -38 48 -74 51 -80 3 -5 22 -35 42 -66 33 -50 39 -55 68 -53
18 1 197 5 399 9 201 4 388 8 415 9 56 2 54 6 90 -129 45 -170 147 -540 167
-607 19 -66 21 -68 62 -78 23 -6 78 -22 122 -36 95 -28 440 -131 575 -170 52
-15 99 -31 103 -35 5 -4 8 -67 7 -140 -1 -74 -2 -264 -3 -422 l-2 -289 120
-78 c142 -93 229 -149 450 -290 90 -58 164 -110 165 -116 0 -7 -25 -92 -56
-190 -31 -99 -64 -208 -75 -244 -11 -36 -29 -92 -39 -125 -68 -211 -90 -288
-83 -298 5 -10 161 -193 198 -233 5 -6 62 -71 125 -144 63 -73 127 -147 142
-164 16 -17 65 -75 110 -128 46 -53 85 -97 88 -97 6 -1 11 14 208 596 l118
352 -23 27 c-13 16 -54 60 -91 99 -37 39 -96 103 -132 141 -36 38 -114 123
-175 188 -211 227 -193 201 -189 265 3 49 10 210 19 406 1 33 6 134 10 225 4
91 8 187 9 214 l1 49 -394 236 -395 236 -63 250 c-34 138 -65 260 -67 271 -2
12 -21 89 -42 170 -20 82 -37 155 -37 161 0 15 11 11 -192 63 -88 23 -194 50
-235 61 -41 11 -82 22 -90 24 -53 13 -305 78 -352 91 -31 9 -59 22 -62 30 -3
7 -94 158 -202 336 -108 178 -205 338 -216 356 l-20 32 -96 -5 c-54 -3 -126
-7 -162 -10 -36 -2 -123 -7 -195 -10 -71 -4 -146 -8 -165 -10 -19 -2 -96 -6
-171 -10 l-136 -6 -69 62 c-38 34 -87 78 -109 98 -22 21 -130 118 -240 216
-110 98 -208 187 -219 197 -19 17 -56 24 -68 13z"/>
<path d="M1940 4289 c-28 -6 -220 -41 -465 -84 -16 -2 -41 -7 -55 -10 -50 -10
-86 -16 -110 -19 -23 -3 -176 -30 -226 -40 -43 -9 -99 -18 -111 -19 -11 0 28
-57 72 -103 21 -22 33 -36 105 -124 25 -30 47 -57 50 -60 3 -3 86 -102 185
-220 99 -118 187 -223 195 -232 14 -15 24 -16 76 -8 32 6 79 13 104 16 25 3
90 12 145 20 55 9 120 18 145 21 25 3 128 18 228 32 l184 27 10 -25 c10 -25
46 -150 53 -181 11 -50 159 -566 164 -572 6 -7 344 -108 506 -153 87 -24 328
-95 331 -98 2 -2 -10 -110 -20 -182 -3 -16 -8 -57 -11 -90 -3 -33 -8 -71 -10
-85 -2 -14 -7 -43 -9 -65 -3 -22 -10 -76 -15 -120 -6 -44 -13 -100 -16 -125
-3 -25 -8 -65 -12 -90 -16 -105 -29 -84 147 -225 69 -55 132 -105 140 -112 8
-7 89 -72 179 -145 91 -73 199 -161 240 -194 48 -39 78 -58 82 -50 4 6 9 34
13 61 7 49 9 60 21 148 3 23 17 110 30 192 13 83 26 170 30 195 3 25 8 54 9
65 2 11 7 40 10 65 4 25 11 70 16 100 5 30 12 78 16 105 l6 51 -184 138 c-101
77 -262 199 -359 272 l-176 133 -22 88 c-12 48 -63 251 -113 450 l-90 362 -32
6 c-17 3 -42 10 -56 14 -14 5 -204 53 -424 107 l-398 99 -265 332 c-145 183
-267 334 -271 336 -4 2 -23 0 -42 -4z"/>
<path d="M1615 2099 c-161 -35 -303 -143 -378 -287 -45 -88 -58 -138 -61 -242
-7 -210 123 -417 318 -506 229 -105 499 -40 657 156 100 124 141 298 109 458
-18 88 -83 202 -153 272 -65 64 -187 132 -262 146 -60 11 -185 12 -230 3z"/>
</g>
</svg>
