<svg xmlns="http://www.w3.org/2000/svg" width="24" height="24" viewBox="0 0 354.3 354.3" stroke="currentColor"><path fill-rule="evenodd" d="M179.8 224.6l41 31-7.5 49.3-39.6-32zM49.6 146.4l50.6-9 31 39-50.4 7.2z"/><path fill-rule="evenodd" d="M123.3 170.3l49.8 12.5 12.2 48.5-48.9-14.2zM192.4 101.3l49.7 12.9 12 48.5-48.8-14.5z"/><path fill-rule="evenodd" d="M248.8 155.5l44.1 26.4-2.3 49.9-42.7-27.7z"/><path fill-rule="evenodd" d="M286.7 225.7l35 37.6-16 47.3-33.4-38.5zM44.6 54.7l48.3-17.5L130 70.5 81.7 86z"/><path fill-rule="evenodd" d="M122 67.7l51.2-2.9 26 42.7-50.8 1z"/><path fill="none" stroke-linecap="round" stroke-linejoin="round" stroke-width="55.4" d="M87.1 275.3h.2"/></svg>
