<svg viewBox="0 0 1059 1059" xmlns="http://www.w3.org/2000/svg" xmlns:xlink="http://www.w3.org/1999/xlink"><svg version="1" viewBox="0 0 1059 1059" id="beer"><path d="M134 0l-4 1a118 118 0 00-99 98c-2 7-2 77-2 403l1 400 4 22a178 178 0 00152 134h455l9-2a188 188 0 0070-30l7-6a183 183 0 0061-91l6-38v-7c0-1 3-2 19-2a284 284 0 0044-2 206 206 0 00171-182V358l-2-7-5-27c-4-12-15-38-21-47l-5-7a207 207 0 00-181-93l-20-1-1-36a236 236 0 00-2-50l-10-26a120 120 0 00-81-62L414 0H134zm541 118l1 29v30H415l-4 9c-5 15-10 24-16 31a60 60 0 01-57 17l-14-3c-2 0-3 0-9 11a95 95 0 01-32 37 86 86 0 01-89 5c-10-5-10-5-18-13a85 85 0 01-29-53v-99l264-1h264zm1 447l-1 330-2 6-4 10a78 78 0 01-15 17c-5 5-19 11-28 13H197c-24-4-45-25-50-49V324l4 2a159 159 0 0026 14c17 9 38 13 61 12 16 0 20 0 36-5 8-2 13-3 24-9 19-9 34-21 50-39l5-5h8c36-3 69-22 89-53l4-6h222v330zm169-268a93 93 0 0117 6c25 11 44 38 49 68v316l-3 15a91 91 0 01-57 59l-9 2-56 2h-51V294h51c49 1 51 1 59 3z"/><path d="M285 413c-8 3-16 10-19 19-2 5-2 18-2 187v183l3 4c7 15 25 22 39 15 6-3 11-8 14-14l2-5V433l-2-4c-5-10-14-16-25-17l-10 1zm117 1c-6 2-11 6-14 10-6 9-6-5-6 195l1 184 2 4c7 14 24 20 38 14 7-3 12-8 15-15l2-4V435l-2-5c-3-6-8-12-14-15s-17-4-22-1zm118-1c-9 4-16 11-19 19-2 6-2 361 0 369 1 6 4 11 9 15 15 13 37 8 46-10l2-5V436l-2-5c-5-12-13-18-25-19l-11 1z"/></svg><svg fill="none" stroke="currentColor" stroke-width="2" stroke-linecap="round" stroke-linejoin="round" viewBox="0 0 24 24" id="bell"><path d="M18 8A6 6 0 006 8c0 7-3 9-3 9h18s-3-2-3-9M13.73 21a2 2 0 01-3.46 0"/></svg><svg version="1" viewBox="5.5 -3.5 64 64" id="cc"><circle cx="37.8" cy="28.5" r="28.8" fill="none"/><path d="M37.4-3.5a31.2 31.2 0 0129.8 19.7 32.6 32.6 0 010 24.6 32.9 32.9 0 01-29.7 19.7A31.1 31.1 0 0114.8 51 31.9 31.9 0 0137.4-3.5zm.2 5.8C30.2 2.3 24 4.8 19 9.9a27.5 27.5 0 00-5.8 8.6 25.2 25.2 0 000 20 26.5 26.5 0 0043 8.3c5-4.8 7.4-11 7.4-18.3A26.3 26.3 0 0056.1 10a25.3 25.3 0 00-18.5-7.7zm-.4 20.9l-4.3 2.2c-.5-1-1-1.6-1.7-2-.7-.4-1.3-.6-1.9-.6-2.8 0-4.3 2-4.3 5.7 0 1.7.4 3 1.1 4.1.7 1 1.8 1.6 3.2 1.6 1.9 0 3.2-1 4-2.8l4 2a9.4 9.4 0 01-8.5 5c-2.8 0-5.2-.8-6.9-2.6a9.9 9.9 0 01-2.6-7.3c0-3 .9-5.5 2.6-7.3a9 9 0 016.7-2.6c4 0 6.8 1.5 8.6 4.6zm18.4 0l-4.2 2.2c-.5-1-1-1.6-1.7-2-.7-.4-1.3-.6-2-.6-2.8 0-4.2 2-4.2 5.7 0 1.7.4 3 1 4.1.8 1 1.9 1.6 3.3 1.6 1.8 0 3.2-1 4-2.8l4 2c-1 1.6-2.1 2.8-3.6 3.7a9.2 9.2 0 01-4.9 1.3c-2.9 0-5.2-.8-7-2.6a10 10 0 01-2.5-7.3c0-3 .9-5.5 2.6-7.3a9 9 0 016.8-2.6c4 0 6.7 1.5 8.4 4.6z"/></svg><svg fill="none" stroke="currentColor" stroke-width="2" stroke-linecap="round" stroke-linejoin="round" viewBox="0 0 24 24" id="external-link"><path d="M18 13v6a2 2 0 01-2 2H5a2 2 0 01-2-2V8a2 2 0 012-2h6M15 3h6v6M10 14L21 3"/></svg><svg fill="none" stroke="currentColor" stroke-width="2" stroke-linecap="round" stroke-linejoin="round" viewBox="0 0 24 24" id="facebook"><path d="M18 2h-3a5 5 0 00-5 5v3H7v4h3v8h4v-8h3l1-4h-4V7a1 1 0 011-1h3z"/></svg><svg viewBox="0 0 354.3 354.3" stroke="currentColor" id="feed-raute"><path fill-rule="evenodd" d="M179.8 224.6l41 31-7.5 49.3-39.6-32zM49.6 146.4l50.6-9 31 39-50.4 7.2z"/><path fill-rule="evenodd" d="M123.3 170.3l49.8 12.5 12.2 48.5-48.9-14.2zm69.1-69l49.7 12.9 12 48.5-48.8-14.5z"/><path fill-rule="evenodd" d="M248.8 155.5l44.1 26.4-2.3 49.9-42.7-27.7z"/><path fill-rule="evenodd" d="M286.7 225.7l35 37.6-16 47.3-33.4-38.5zM44.6 54.7l48.3-17.5L130 70.5 81.7 86z"/><path fill-rule="evenodd" d="M122 67.7l51.2-2.9 26 42.7-50.8 1z"/><path fill="none" stroke-linecap="round" stroke-linejoin="round" stroke-width="55.4" d="M87.1 275.3h.2"/></svg><svg viewBox="0 0 100 100" id="impressum"><path fill-rule="evenodd" d="M57 6.6a17 17 0 0111.2 12.7c.6 2.7.8 2.7-1 2.7H62c-2.2 0-1.7.5-3.2-3.7-2.8-7.3-12.1-7-16-3.5a6.5 6.5 0 000 10c3.8 3.3 8.1 6 12.3 9 4 2.7 8.2 5.2 12 8.1 7.1 5.8 6.7 18.7-1.8 23L62 66.5l3 3.2c7 7.1 4.8 19.2-4.4 23A24 24 0 0139 92c-4.6-2.4-7-6.7-8-11.7-.2-.5-.2-1.3 0-1.3 1.9-.7 3.8-1.1 5.8-1.6 1.1-.4 1.4 1.2 1.8 2.1 1.2 2.1 1.6 3 3.7 5 4.2 4.2 13 3.8 16.3.7 3-3 3.1-8-.5-10.9-4.3-3.5-9-6.4-13.6-9.7-4.2-3-8.6-5.8-12.4-9.3-6.7-6.2-5.2-18 3.9-22.8l1.6-.9-2-2.8c-6.4-8.3-3-18.9 7-22.4 8.5-3 14.5.2 14.5.2zm7.5 47.8c-.4-3.4-2.6-6.1-5.5-8.1-5.1-3.7-10.5-7-15.7-10.5-.6-.3-1.7-.4-2.3-.1-7.3 4.4-7.7 11-1.8 15.5 5.6 4.1 11.5 7.7 17.3 11.5.6.3 1.4.4 2 .2 3-.8 6-5.1 6-8.5z" clip-rule="evenodd"/></svg><svg fill="none" stroke="currentColor" stroke-width="2" stroke-linecap="round" stroke-linejoin="round" viewBox="0 0 24 24" id="message-square"><path d="M21 15a2 2 0 01-2 2H7l-4 4V5a2 2 0 012-2h14a2 2 0 012 2z"/></svg><svg fill="none" stroke="currentColor" stroke-width="2" stroke-linecap="round" stroke-linejoin="round" viewBox="0 0 24 24" id="share-2"><circle cx="18" cy="5" r="3"/><circle cx="6" cy="12" r="3"/><circle cx="18" cy="19" r="3"/><path d="M8.59 13.51l6.83 3.98M15.41 6.51l-6.82 3.98"/></svg><svg fill="none" stroke="currentColor" stroke-width="2" stroke-linecap="round" stroke-linejoin="round" viewBox="0 0 24 24" id="shield"><path d="M12 22s8-4 8-10V5l-8-3-8 3v7c0 6 8 10 8 10z"/></svg><svg fill="none" stroke="currentColor" stroke-width="2" stroke-linecap="round" stroke-linejoin="round" viewBox="0 0 24 24" id="twitter"><path d="M23 3a10.9 10.9 0 01-3.14 1.53 4.48 4.48 0 00-7.86 3v1A10.66 10.66 0 013 4s-4 9 5 13a11.64 11.64 0 01-7 2c9 5 20 0 20-11.5a4.5 4.5 0 00-.08-.83A7.72 7.72 0 0023 3z"/></svg></svg>